<svg viewBox="-69 0 511 511.99931" xmlns="http://www.w3.org/2000/svg"><path d="m285.386719 157.222656 72.058593-110.484375s-114.71875-105.160156-272.464843 0c-85.503907 57.003907-91.890625 156.136719-79.808594 234.984375l90.960937-5.539062" fill="#f43a1c"/><path d="m312.890625 19.046875c-48.199219-12.367187-115.175781-11.335937-192.480469 40.199219-80.332031 53.554687-90.835937 144.289062-81.789062 220.445312l-33.449219 2.03125c-12.085937-78.84375-5.699219-177.976562 79.8125-234.980468 98.632813-65.757813 180.445313-49.285157 227.90625-27.695313zm0 0" fill="#dd210e"/><path d="m303.125 130.019531-17.742188 27.203125-125.53125 118.957032-90.339843 1.625c-.105469-2.335938-.15625-4.683594-.15625-7.042969 0-87.9375 71.289062-159.226563 159.246093-159.226563 26.929688 0 52.289063 6.679688 74.523438 18.484375zm0 0" fill="#424351"/><path d="m311.621094 181.25-145.664063 64.171875-53.398437 23.519531c-.855469-5.230468-1.324219-10.585937-1.40625-16.046875-.019532-.617187-.019532-1.21875-.019532-1.835937 0-50.730469 33.632813-93.628906 79.832032-107.578125 5.054687-1.542969 10.261718-2.722657 15.597656-3.535157h.03125c5.523438-.832031 11.179688-1.269531 16.941406-1.269531 29.894532 0 57.058594 11.660157 77.1875 30.695313 3.910156 3.6875 7.554688 7.660156 10.898438 11.878906zm0 0" fill="#ffc84d"/><path d="m165.957031 245.429688-53.402343 23.515624c-.945313-5.8125-1.425782-11.785156-1.425782-17.878906 0-50.742187 33.632813-93.628906 79.832032-107.582031-26.683594 12.984375-35.777344 59.722656-25.003907 101.945313zm0 0" fill="#eaad34"/><path d="m311.621094 181.25-95.503906 84.40625-103.558594 3.285156c-.855469-5.230468-1.324219-10.585937-1.40625-16.046875l82.230468-36.21875c.011719-.011719.019532-.023437.019532-.023437l107.320312-47.28125c3.910156 3.6875 7.554688 7.660156 10.898438 11.878906zm0 0" fill="#eaad34"/><path d="m317.609375 357.449219 43.023437 154.550781-173.671874-90.816406 7.960937-103.570313-32.144531 17.015625-49.117188 26.007813-17.527344-84.449219 97.246094-42.835938c.011719-.011718.019532-.019531.019532-.019531l130.589843-57.527343 49.386719 192.792968h-27.078125l-25.5-57.359375-73.289063-27.089843-12.753906 49.398437zm0 0" fill="#ffc84d"/><path d="m162.777344 334.628906-49.117188 26.007813-17.527344-84.449219 97.246094-42.835938c-1.175781 1.148438-44.710937 43.992188-30.601562 101.277344zm0 0" fill="#eaad34"/></svg>